<?xml version="1.0" encoding="UTF-8"?>
<svg version="1.1" xmlns="http://www.w3.org/2000/svg" width="500" height="500">
<path d="M0 0 C165 0 330 0 500 0 C500 165 500 330 500 500 C335 500 170 500 0 500 C0 335 0 170 0 0 Z " fill="#FEFEFE" transform="translate(0,0)"/>
<path d="M0 0 C4.16160823 1.83885015 6.0181044 3.93711401 8 8 C16.20964111 34.33926523 -2.16535053 75.90820179 -14.1315918 98.92675781 C-16.35953159 103.26827841 -17.64646474 107.19518278 -18.41015625 112.02832031 C-19.1212335 114.40524907 -20.23575587 115.30088664 -22 117 C-22.78506687 119.51683202 -23.43328066 121.93535486 -24 124.5 C-26.89226744 137.00047791 -30.56775991 149.14709058 -34.625 161.3125 C-34.88978149 162.10724731 -35.15456299 162.90199463 -35.42736816 163.7208252 C-54.29030938 220.14515469 -54.29030938 220.14515469 -66 226 C-64.50011039 226.0276619 -63.00006131 226.0466861 -61.5 226.0625 C-60.24703125 226.07990234 -60.24703125 226.07990234 -58.96875 226.09765625 C-56.00522906 226.00017201 -53.12736007 225.64327658 -50.19042969 225.25170898 C-45.44445966 224.70633503 -40.6611139 224.59705201 -35.890625 224.39453125 C-34.68792969 224.33845703 -34.68792969 224.33845703 -33.4609375 224.28125 C-32.74728027 224.25095703 -32.03362305 224.22066406 -31.29833984 224.18945312 C-28.94719023 224.03880961 -28.94719023 224.03880961 -26.46044922 223.5 C-21.37207579 222.76478138 -16.30718895 222.78230143 -11.171875 222.71875 C-10.02769104 222.70034058 -8.88350708 222.68193115 -7.70465088 222.66296387 C-4.05315143 222.60437867 -0.40160545 222.55152602 3.25 222.5 C8.04696411 222.43191734 12.84379544 222.35817163 17.640625 222.28125 C19.27393768 222.26088684 19.27393768 222.26088684 20.94024658 222.2401123 C27.34307364 222.13728649 33.64055441 221.75770422 40 221 C36.14569886 216.67328452 32.38774851 214.40614232 27.125 212.0625 C26.38121094 211.72041504 25.63742187 211.37833008 24.87109375 211.02587891 C19.97656167 208.80194147 15.01708506 206.80232233 10 204.875 C4.32330978 202.65157918 -1.54984756 200.30543204 -6 196 C-6 195.01 -6 194.02 -6 193 C-2.78858641 191.13085324 -0.21537015 190.66843773 3.4765625 190.4375 C4.60094727 190.36402344 5.72533203 190.29054688 6.88378906 190.21484375 C8.11838867 190.14394531 9.35298828 190.07304687 10.625 190 C11.92663086 189.91878906 13.22826172 189.83757812 14.56933594 189.75390625 C25.21625807 189.10190005 35.87134927 188.61530389 46.52670288 188.12527466 C78.12599741 187.60494823 78.12599741 187.60494823 109 182 C109 181.34 109 180.68 109 180 C102.16087197 177.77988689 95.40966206 176.19319317 88.3125 175.0625 C87.27834961 174.89556641 86.24419922 174.72863281 85.17871094 174.55664062 C62.1079934 170.91066159 39.01172885 168.39809402 15.74121094 166.48242188 C6.98037556 165.74684666 -1.71959941 164.8608248 -10.41015625 163.515625 C-11.17845764 163.39843613 -11.94675903 163.28124725 -12.73834229 163.1605072 C-18.77633331 162.17563689 -24.39549763 160.48109431 -30 158 C-29.67 157.01 -29.34 156.02 -29 155 C-22.70582515 152.06560233 -15.3959495 151.25011356 -8.5625 150.4375 C-7.55388916 150.31455566 -6.54527832 150.19161133 -5.50610352 150.06494141 C8.96261414 148.41697461 23.51910813 147.79589919 38.05804443 147.09570312 C40.81662049 146.95975545 43.57426195 146.80758276 46.33203125 146.65625 C61.55402989 145.86067973 76.76192517 145.89473112 92 146 C92 147.98 92 149.96 92 152 C90.89151451 152.0154612 90.89151451 152.0154612 89.76063538 152.03123474 C82.71683734 152.1301606 75.67310454 152.23278893 68.62941837 152.33933926 C65.01021335 152.39396298 61.39099997 152.44726939 57.77172852 152.49731445 C30.75811908 152.68542895 30.75811908 152.68542895 3.875 155.0625 C-1.10987262 155.73317466 -5.96141258 156.0981543 -11 156 C-11 156.66 -11 157.32 -11 158 C-10.17822266 158.07347656 -10.17822266 158.07347656 -9.33984375 158.1484375 C-4.2888069 158.62479545 0.72608769 159.22935698 5.75 159.9375 C10.86559716 160.63457994 15.96517544 161.19668888 21.10943604 161.62937927 C34.31446853 162.74048159 47.45090445 164.31637129 60.59667969 165.97680664 C64.25909602 166.43864703 67.92243977 166.89252973 71.5859375 167.34570312 C81.86307961 168.62757772 92.13338817 169.9293989 102.35546875 171.6015625 C103.05669861 171.7146727 103.75792847 171.8277829 104.48040771 171.94432068 C109.73476083 172.84105219 115.56310913 173.8847362 120 177 C120.74609375 179.12890625 120.74609375 179.12890625 121 181 C117.89621148 183.63822024 115.18537076 184.70365731 111.25 185.6875 C109.77273438 186.06455078 109.77273438 186.06455078 108.265625 186.44921875 C107.51796875 186.63097656 106.7703125 186.81273437 106 187 C106.12568359 188.57201172 106.12568359 188.57201172 106.25390625 190.17578125 C106.35708794 191.55466381 106.45993506 192.93357143 106.5625 194.3125 C106.61857422 195.00279297 106.67464844 195.69308594 106.73242188 196.40429688 C106.96581505 199.62512274 107.03224218 201.90327345 106 205 C104.02 205 102.04 205 100 205 C100.05800781 205.61488281 100.11601562 206.22976563 100.17578125 206.86328125 C100.31314484 209.32405191 100.3659631 211.56024603 100 214 C97.5625 215.8125 97.5625 215.8125 95 217 C94.67 218.32 94.34 219.64 94 221 C83.605 221.99 83.605 221.99 73 223 C72.01 225.97 72.01 225.97 71 229 C68.8359375 230.0234375 68.8359375 230.0234375 66.375 230.375 C65.55773437 230.50648438 64.74046875 230.63796875 63.8984375 230.7734375 C62.95871094 230.88558594 62.95871094 230.88558594 62 231 C62 231.66 62 232.32 62 233 C61.01 233 60.02 233 59 233 C59 233.66 59 234.32 59 235 C60.65 235.33 62.3 235.66 64 236 C62.02 236.99 62.02 236.99 60 238 C60 239.65 60 241.3 60 243 C54.12833324 246.00429589 49.10563673 246.52262614 42.5625 246.6875 C41.64017578 246.72166016 40.71785156 246.75582031 39.76757812 246.79101562 C37.51184049 246.87282994 35.25645881 246.94219122 33 247 C32.87882813 248.0003125 32.75765625 249.000625 32.6328125 250.03125 C32.06752284 253.96267216 31.03559726 257.70742451 29.875 261.5 C29.66125732 262.21486572 29.44751465 262.92973145 29.22729492 263.66625977 C27.90409525 268.07552512 26.54541268 272.47362801 25.18359375 276.87109375 C24.87373535 277.8765625 24.56387695 278.88203125 24.24462891 279.91796875 C23.63842639 281.88169655 23.027667 283.84402542 22.41162109 285.8046875 C20.5531244 291.81765694 19.10597566 297.80401317 18 304 C18.45503906 303.58024902 18.91007813 303.16049805 19.37890625 302.72802734 C24.61387614 297.95505932 29.59887515 294.3967979 36.75 293.5625 C40.13783135 294.01855422 41.56511169 294.66250722 44 297 C43.86036657 301.60790324 41.75803547 304.05537229 38.56640625 307.09375 C32.28115143 311.76224977 24.59403589 315.45594644 17.17578125 317.94921875 C14.35417809 319.31189604 13.67339532 320.7149119 12.3125 323.5 C11.00028454 326.13297955 10.09349793 327.90650207 8 330 C5.375 329.625 5.375 329.625 3 329 C3.54981545 323.54468954 4.5591571 318.59445468 6.31665039 313.390625 C6.55088211 312.67744614 6.78511383 311.96426727 7.02644348 311.22947693 C7.79322034 308.90061883 8.5703234 306.57535363 9.34765625 304.25 C9.88495724 302.62496875 10.42160393 300.99972102 10.95762634 299.37426758 C12.36328895 295.11755084 13.77776621 290.86381517 15.19415283 286.61065674 C16.64067104 282.2617481 18.07875958 277.91005452 19.51757812 273.55859375 C22.33684862 265.03632916 25.16544712 256.51719272 28 248 C26.92403564 248.27914246 25.84807129 248.55828491 24.73950195 248.84588623 C23.30165216 249.21356161 21.86374201 249.58100104 20.42578125 249.94824219 C19.71973755 250.13208466 19.01369385 250.31592712 18.28625488 250.50534058 C11.89339193 252.12931173 5.58125725 252.84706588 -1 253.25 C-2.0725 253.32734375 -3.145 253.4046875 -4.25 253.484375 C-6.8324651 253.66883679 -9.41613227 253.83635504 -12 254 C-12.99 257.96 -13.98 261.92 -15 266 C-12.86917969 265.75443359 -12.86917969 265.75443359 -10.6953125 265.50390625 C-5.0749003 264.94186503 0.48131929 264.88597763 6.125 264.9375 C7.55972656 264.94426758 7.55972656 264.94426758 9.0234375 264.95117188 C11.34902758 264.96279983 13.6744776 264.97913898 16 265 C16 265.33 16 265.66 16 266 C14.81241089 266.12846313 14.81241089 266.12846313 13.60083008 266.25952148 C10.00446415 266.64986358 6.4084829 267.04364553 2.8125 267.4375 C1.56662109 267.57220703 0.32074219 267.70691406 -0.96289062 267.84570312 C-2.7659668 268.04389648 -2.7659668 268.04389648 -4.60546875 268.24609375 C-5.71043701 268.36654053 -6.81540527 268.4869873 -7.95385742 268.61108398 C-10.67365573 268.95833402 -13.32092597 269.42233147 -16 270 C-16.16081055 270.65371582 -16.32162109 271.30743164 -16.48730469 271.98095703 C-21.79328871 293.50387511 -21.79328871 293.50387511 -24 300.9375 C-25.94043925 307.55300596 -27.56975016 314.23642279 -29.1875 320.9375 C-29.58098633 322.55676392 -29.58098633 322.55676392 -29.98242188 324.20874023 C-31.52457318 330.65249243 -31.52457318 330.65249243 -32.55078125 337.19140625 C-32.69902344 338.11824219 -32.84726563 339.04507812 -33 340 C-33.66 340.33 -34.32 340.66 -35 341 C-35.50088293 329.17359749 -33.50009694 317.52435726 -31 306 C-31.72445312 306.95261719 -32.44890625 307.90523438 -33.1953125 308.88671875 C-34.17152397 310.15391633 -35.14810632 311.42082827 -36.125 312.6875 C-36.599375 313.31333984 -37.07375 313.93917969 -37.5625 314.58398438 C-40.70376738 318.63791727 -43.8041325 322.02007778 -48 325 C-51.8125 324.9375 -51.8125 324.9375 -55 324 C-57.47309287 319.05381425 -56.49245018 312.8127261 -55.09375 307.6640625 C-50.16482165 294.10950953 -50.16482165 294.10950953 -45 290 C-42.3125 289.80078125 -42.3125 289.80078125 -40 290 C-39.67 291.65 -39.34 293.3 -39 295 C-39.598125 295.185625 -40.19625 295.37125 -40.8125 295.5625 C-45.48978137 298.63614204 -46.72942242 305.82693416 -48 311 C-48.41289748 313.66506555 -48.71751043 316.31634909 -49 319 C-35.07691425 308.02908716 -28.49800358 297.84101252 -24.60327148 280.62963867 C-23.78758212 277.07407811 -22.88475188 273.53900752 -22 270 C-28.6 270.66 -35.2 271.32 -42 272 C-42 271.01 -42 270.02 -42 269 C-31.605 267.515 -31.605 267.515 -21 266 C-19.68 262.37 -18.36 258.74 -17 255 C-21.00254456 254.90818866 -21.00254456 254.90818866 -25 255 C-25.33 255.33 -25.66 255.66 -26 256 C-33.92374523 257.45538178 -41.97580063 257.08764295 -50 257 C-50 255.68 -50 254.36 -50 253 C-51.32 252.67 -52.64 252.34 -54 252 C-54 251.34 -54 250.68 -54 250 C-55.24136719 250.11859375 -56.48273438 250.2371875 -57.76171875 250.359375 C-59.40355514 250.49072191 -61.04548798 250.62086721 -62.6875 250.75 C-63.50412109 250.83121094 -64.32074219 250.91242188 -65.16210938 250.99609375 C-69.21573551 251.2914997 -71.33532602 251.39487352 -74.90625 249.2734375 C-76.80859223 247.20783456 -78.37231458 245.27988105 -79.8125 242.875 C-80.44091797 241.85019531 -80.44091797 241.85019531 -81.08203125 240.8046875 C-82 239 -82 239 -82 237 C-82.99 237.33 -83.98 237.66 -85 238 C-84.27490234 238.60521484 -84.27490234 238.60521484 -83.53515625 239.22265625 C-81.09413902 242.04877035 -81.40488817 244.50398625 -81.53125 248.12109375 C-83.18844855 258.29905487 -89.97190746 265.91955667 -97 273 C-97.86625 273.9075 -98.7325 274.815 -99.625 275.75 C-100.40875 276.4925 -101.1925 277.235 -102 278 C-102.44988281 278.44472656 -102.89976562 278.88945312 -103.36328125 279.34765625 C-112.51908223 287.86732217 -124.32783028 292.96709086 -136 297 C-135.45982171 301.90765132 -134.41682019 305.93339777 -132.453125 310.45703125 C-131.9375 311.65263672 -131.421875 312.84824219 -130.890625 314.08007812 C-130.62056641 314.69439697 -130.35050781 315.30871582 -130.07226562 315.94165039 C-129.25812996 317.79400241 -128.45611464 319.65121316 -127.65625 321.50976562 C-124.91707178 327.81868972 -122.0702958 334.02473075 -118.87402344 340.1159668 C-118 342 -118 342 -118 344 C-121.4153618 343.44029188 -122.76523327 342.56485141 -124.80078125 339.78515625 C-128.49625014 334.57246561 -131.38084827 328.93330448 -134.26928711 323.24536133 C-135.18946235 321.43363635 -136.12010221 319.62760474 -137.05273438 317.82226562 C-139.89358903 312.28521521 -142.66909923 306.77215791 -145 301 C-148.71834585 305.2765271 -151.27650977 309.91162158 -153.9375 314.875 C-156.96885199 320.52540262 -159.991265 325.9758073 -164 331 C-166.8125 331.4375 -166.8125 331.4375 -169 331 C-168.41152135 325.61085875 -166.55818044 321.31481204 -164.30859375 316.45703125 C-163.93126099 315.62726273 -163.55392822 314.7974942 -163.16516113 313.94258118 C-161.92937327 311.22940761 -160.68355413 308.520972 -159.4375 305.8125 C-158.58018186 303.93567116 -157.72349861 302.0585522 -156.86743164 300.18115234 C-155.11482721 296.34077181 -153.35806564 292.50233628 -151.59765625 288.66552734 C-149.13988719 283.30824455 -146.69338341 277.94588724 -144.25 272.58203125 C-141.51260833 266.57652721 -138.77423181 260.57147999 -136.02734375 254.5703125 C-135.48843506 253.39227051 -134.94952637 252.21422852 -134.39428711 251.00048828 C-133.29970012 248.64495088 -132.18015886 246.31340987 -131 244 C-131.639375 243.731875 -132.27875 243.46375 -132.9375 243.1875 C-135 242 -135 242 -136 239 C-136.66 239 -137.32 239 -138 239 C-140 233 -140 233 -140.8125 230.25 C-142.86616089 224.6294544 -145.68302806 219.33002728 -148.625 214.125 C-150.9984546 208.73078499 -153.13950184 202.38421125 -152.89453125 196.44140625 C-152.80767225 193.90110651 -152.80767225 193.90110651 -154.39453125 191.70703125 C-156.51078392 188.1387512 -157.02444118 184.74194165 -157.6875 180.6875 C-157.81705078 179.94693359 -157.94660156 179.20636719 -158.08007812 178.44335938 C-158.3958706 176.63047666 -158.69920583 174.81543149 -159 173 C-151.81013024 168.70276643 -145.12895323 165.92435765 -137 164 C-135.12030235 163.51796085 -133.24491796 163.01868279 -131.375 162.5 C-130.55773437 162.2834375 -129.74046875 162.066875 -128.8984375 161.84375 C-127.95871094 161.42609375 -127.95871094 161.42609375 -127 161 C-126.67 160.01 -126.34 159.02 -126 158 C-126.66 158 -127.32 158 -128 158 C-131.04019721 152.93300466 -132.1183221 147.67427278 -133.3515625 141.92578125 C-133.95609744 138.95927158 -133.95609744 138.95927158 -135 136 C-133.08786282 131.64724976 -131.00330475 130.11008013 -126.6953125 128.28125 C-125.6441626 127.8265332 -124.5930127 127.37181641 -123.51000977 126.90332031 C-122.39295654 126.44022461 -121.27590332 125.97712891 -120.125 125.5 C-118.97894287 125.01370117 -117.83288574 124.52740234 -116.65209961 124.02636719 C-114.46529537 123.10288725 -112.27562375 122.18614793 -110.08227539 121.27832031 C-107.90667922 120.3760295 -105.73728257 119.45871975 -103.57250977 118.53076172 C-87.4092364 111.65327514 -69.31351878 107.74610192 -52 105 C-51.814375 103.8553125 -51.814375 103.8553125 -51.625 102.6875 C-51 100 -51 100 -49 97 C-48.70940589 95.11260591 -48.49255746 93.21362617 -48.3125 91.3125 C-45.23634556 68.04908208 -36.09656084 44.5806088 -25 24 C-24.42378906 22.90816406 -23.84757813 21.81632812 -23.25390625 20.69140625 C-11.22170409 -1.12217041 -11.22170409 -1.12217041 0 0 Z " fill="#F9E372" transform="translate(267,71)"/>
<path d="M0 0 C4.16160823 1.83885015 6.0181044 3.93711401 8 8 C16.20964111 34.33926523 -2.16535053 75.90820179 -14.1315918 98.92675781 C-16.35953159 103.26827841 -17.64646474 107.19518278 -18.41015625 112.02832031 C-19.1212335 114.40524907 -20.23575587 115.30088664 -22 117 C-22.78506687 119.51683202 -23.43328066 121.93535486 -24 124.5 C-26.89226744 137.00047791 -30.56775991 149.14709058 -34.625 161.3125 C-35.02217224 162.50462097 -35.02217224 162.50462097 -35.42736816 163.7208252 C-54.29030938 220.14515469 -54.29030938 220.14515469 -66 226 C-64.50011039 226.0276619 -63.00006131 226.0466861 -61.5 226.0625 C-60.24703125 226.07990234 -60.24703125 226.07990234 -58.96875 226.09765625 C-56.00522906 226.00017201 -53.12736007 225.64327658 -50.19042969 225.25170898 C-45.44445966 224.70633503 -40.6611139 224.59705201 -35.890625 224.39453125 C-34.68792969 224.33845703 -34.68792969 224.33845703 -33.4609375 224.28125 C-32.74728027 224.25095703 -32.03362305 224.22066406 -31.29833984 224.18945312 C-28.94719023 224.03880961 -28.94719023 224.03880961 -26.46044922 223.5 C-21.37207579 222.76478138 -16.30718895 222.78230143 -11.171875 222.71875 C-10.02769104 222.70034058 -8.88350708 222.68193115 -7.70465088 222.66296387 C-4.05315143 222.60437867 -0.40160545 222.55152602 3.25 222.5 C8.04696411 222.43191734 12.84379544 222.35817163 17.640625 222.28125 C19.27393768 222.26088684 19.27393768 222.26088684 20.94024658 222.2401123 C27.34307364 222.13728649 33.64055441 221.75770422 40 221 C36.14569886 216.67328452 32.38774851 214.40614232 27.125 212.0625 C26.38121094 211.72041504 25.63742187 211.37833008 24.87109375 211.02587891 C19.97656167 208.80194147 15.01708506 206.80232233 10 204.875 C4.32330978 202.65157918 -1.54984756 200.30543204 -6 196 C-6 195.01 -6 194.02 -6 193 C-2.78858641 191.13085324 -0.21537015 190.66843773 3.4765625 190.4375 C4.60094727 190.36402344 5.72533203 190.29054688 6.88378906 190.21484375 C8.11838867 190.14394531 9.35298828 190.07304687 10.625 190 C11.92663086 189.91878906 13.22826172 189.83757812 14.56933594 189.75390625 C25.21625807 189.10190005 35.87134927 188.61530389 46.52670288 188.12527466 C78.12599741 187.60494823 78.12599741 187.60494823 109 182 C109 181.34 109 180.68 109 180 C102.16087197 177.77988689 95.40966206 176.19319317 88.3125 175.0625 C86.76127441 174.81209961 86.76127441 174.81209961 85.17871094 174.55664062 C62.1079934 170.91066159 39.01172885 168.39809402 15.74121094 166.48242188 C6.98037556 165.74684666 -1.71959941 164.8608248 -10.41015625 163.515625 C-11.17845764 163.39843613 -11.94675903 163.28124725 -12.73834229 163.1605072 C-18.77633331 162.17563689 -24.39549763 160.48109431 -30 158 C-29.67 157.01 -29.34 156.02 -29 155 C-22.70582515 152.06560233 -15.3959495 151.25011356 -8.5625 150.4375 C-7.55388916 150.31455566 -6.54527832 150.19161133 -5.50610352 150.06494141 C8.96261414 148.41697461 23.51910813 147.79589919 38.05804443 147.09570312 C40.81662049 146.95975545 43.57426195 146.80758276 46.33203125 146.65625 C61.55402989 145.86067973 76.76192517 145.89473112 92 146 C92 147.98 92 149.96 92 152 C90.89151451 152.0154612 90.89151451 152.0154612 89.76063538 152.03123474 C82.71683734 152.1301606 75.67310454 152.23278893 68.62941837 152.33933926 C65.01021335 152.39396298 61.39099997 152.44726939 57.77172852 152.49731445 C30.75811908 152.68542895 30.75811908 152.68542895 3.875 155.0625 C-1.10987262 155.73317466 -5.96141258 156.0981543 -11 156 C-11 156.66 -11 157.32 -11 158 C-10.17822266 158.07347656 -10.17822266 158.07347656 -9.33984375 158.1484375 C-4.2888069 158.62479545 0.72608769 159.22935698 5.75 159.9375 C10.86559716 160.63457994 15.96517544 161.19668888 21.10943604 161.62937927 C34.31446853 162.74048159 47.45090445 164.31637129 60.59667969 165.97680664 C64.25909602 166.43864703 67.92243977 166.89252973 71.5859375 167.34570312 C81.86307961 168.62757772 92.13338817 169.9293989 102.35546875 171.6015625 C103.05669861 171.7146727 103.75792847 171.8277829 104.48040771 171.94432068 C109.73476083 172.84105219 115.56310913 173.8847362 120 177 C120.74609375 179.12890625 120.74609375 179.12890625 121 181 C106.57140881 193.62960654 78.05680344 192.20306058 60.15249634 192.54208374 C43.02433395 192.86876874 26.04396375 194.33553207 9 196 C11.4985896 197.19054084 13.99868934 198.37769699 16.5 199.5625 C17.26304443 199.92529053 18.02608887 200.28808105 18.81225586 200.66186523 C22.64733761 202.47220703 26.48814941 204.22927461 30.41015625 205.84375 C37.89390043 208.93131514 44.39560302 211.93471511 50 218 C49.203125 222.7890625 49.203125 222.7890625 47.375 224.6875 C35.57026283 231.21117054 18.58234884 229.15766961 5.39953613 229.38842773 C-21.36992955 229.55097844 -21.36992955 229.55097844 -47.90991211 232.52294922 C-51.06944312 233.0107207 -54.04309174 233.12938497 -57.23828125 233.1328125 C-58.38748047 233.13410156 -59.53667969 233.13539063 -60.72070312 233.13671875 C-61.90599609 233.13285156 -63.09128906 233.12898437 -64.3125 233.125 C-66.11944336 233.13080078 -66.11944336 233.13080078 -67.96289062 233.13671875 C-69.10564453 233.13542969 -70.24839844 233.13414062 -71.42578125 233.1328125 C-72.47161377 233.13168457 -73.51744629 233.13055664 -74.5949707 233.12939453 C-77 233 -77 233 -78 232 C-78.36978426 230.36197128 -78.69668783 228.71412956 -79 227.0625 C-79.6503519 223.41467401 -79.6503519 223.41467401 -81 220 C-81.12619896 218.08647154 -81.17580701 216.16764977 -81.1875 214.25 C-81.20167969 213.22390625 -81.21585938 212.1978125 -81.23046875 211.140625 C-80.47659527 188.02893113 -73.48590318 164.20056532 -66 142.4375 C-65.75509827 141.71986481 -65.51019653 141.00222961 -65.25787354 140.2628479 C-61.5511319 129.4836705 -57.09720788 119.19441576 -52 109 C-51.72904124 106.73340843 -51.55512003 104.46718841 -51.37890625 102.19140625 C-51 100 -51 100 -49 97 C-48.70940589 95.11260591 -48.49255746 93.21362617 -48.3125 91.3125 C-45.23634556 68.04908208 -36.09656084 44.5806088 -25 24 C-24.42378906 22.90816406 -23.84757812 21.81632812 -23.25390625 20.69140625 C-11.22170409 -1.12217041 -11.22170409 -1.12217041 0 0 Z " fill="#474021" transform="translate(267,71)"/>
<path d="M0 0 C2.86747269 0.00322049 5.73396798 -0.02061512 8.60131836 -0.0456543 C10.43269728 -0.0479222 12.26407895 -0.04863316 14.09545898 -0.04760742 C14.94848099 -0.05681717 15.80150299 -0.06602692 16.68037415 -0.07551575 C22.59661204 -0.0288099 22.59661204 -0.0288099 24.7141571 1.7212677 C30.25397583 8.51948258 28.38341557 22.03827164 28.01342773 30.31567383 C27.69825195 31.49516602 27.69825195 31.49516602 27.37670898 32.69848633 C27.25682617 33.2321582 27.13694336 33.76583008 27.01342773 34.31567383 C29.0236749 36.59596391 29.0236749 36.59596391 32.57592773 37.69067383 C36.01342773 39.31567383 36.01342773 39.31567383 36.95092773 41.50317383 C36.97155273 42.10129883 36.99217773 42.69942383 37.01342773 43.31567383 C38.33342773 43.31567383 39.65342773 43.31567383 41.01342773 43.31567383 C41.01342773 45.95567383 41.01342773 48.59567383 41.01342773 51.31567383 C31.43425812 52.38822881 21.82917097 52.6914597 12.20465088 53.07394409 C-2.50982408 53.67060334 -17.19584326 54.39618321 -31.86157227 55.75317383 C-33.71721802 55.91825439 -33.71721802 55.91825439 -35.61035156 56.08666992 C-49.56365404 56.76855422 -49.56365404 56.76855422 -61.88061523 61.91503906 C-62.42806396 62.60835327 -62.42806396 62.60835327 -62.98657227 63.31567383 C-46.28018843 68.60915725 -28.6597324 69.84539523 -11.29733276 71.33599854 C7.05872785 72.92591055 25.33786965 74.81407647 43.57592773 77.44067383 C44.43703156 77.56278229 45.29813538 77.68489075 46.18533325 77.81069946 C71.0991498 81.37282187 71.0991498 81.37282187 77.01342773 85.31567383 C76.68342773 86.30567383 76.35342773 87.29567383 76.01342773 88.31567383 C57.31717467 96.42098585 30.9352298 93.64757679 10.82275391 94.5637207 C-0.24593402 95.07066445 -11.30513372 95.65002016 -22.36157227 96.37817383 C-23.59617187 96.45745117 -24.83077148 96.53672852 -26.1027832 96.6184082 C-27.22716797 96.69510742 -28.35155273 96.77180664 -29.51000977 96.85083008 C-30.96286377 96.94956421 -30.96286377 96.94956421 -32.44506836 97.05029297 C-34.71953881 97.28779051 -36.79073461 97.69184896 -38.98657227 98.31567383 C-37.94898275 101.62712974 -36.84400223 102.40251673 -33.81860352 104.24536133 C-32.48559826 104.90774299 -31.14519282 105.55536924 -29.79907227 106.19067383 C-29.08726807 106.53727051 -28.37546387 106.88386719 -27.64208984 107.2409668 C-22.8955449 109.51540753 -18.0802035 111.53930935 -13.17407227 113.44067383 C4.23411686 120.22691705 4.23411686 120.22691705 7.01342773 126.31567383 C-0.48835666 128.13091446 -7.64497119 128.63507169 -15.34594727 128.69458008 C-16.49395813 128.71157455 -17.64196899 128.72856903 -18.82476807 128.74607849 C-22.46198148 128.79881527 -26.09918609 128.83933451 -29.73657227 128.87817383 C-33.38818495 128.92223588 -37.03971433 128.96900345 -40.69122314 129.02098083 C-42.95495269 129.05271099 -45.21875556 129.07966958 -47.48260498 129.10121155 C-52.43309496 129.16615055 -57.11414533 129.35214929 -61.98657227 130.31567383 C-63.47146762 130.43807438 -64.95891865 130.53373685 -66.44750977 130.59692383 C-67.65020508 130.65299805 -67.65020508 130.65299805 -68.87719727 130.71020508 C-69.69704102 130.74500977 -70.51688477 130.77981445 -71.36157227 130.81567383 C-75.99368168 131.0141928 -80.58449996 131.22185345 -85.18188477 131.84301758 C-88.67044158 132.27640092 -91.97617876 132.41806466 -95.48657227 132.37817383 C-96.52813477 132.36915039 -97.56969727 132.36012695 -98.64282227 132.35083008 C-99.80297852 132.33342773 -99.80297852 132.33342773 -100.98657227 132.31567383 C-100.30594727 131.86192383 -99.62532227 131.40817383 -98.92407227 130.94067383 C-83.75970674 117.38953868 -77.58730919 92.88608684 -70.98657227 74.31567383 C-70.59937012 73.22802734 -70.21216797 72.14038086 -69.81323242 71.01977539 C-65.05781412 57.53332265 -60.9080244 44.09208794 -57.92529297 30.09521484 C-57.60371216 28.62652954 -57.60371216 28.62652954 -57.27563477 27.12817383 C-57.00807373 25.8384668 -57.00807373 25.8384668 -56.73510742 24.52270508 C-55.89802579 22.05459746 -54.87696315 21.05527234 -52.98657227 19.31567383 C-52.08675221 16.7962872 -52.08675221 16.7962872 -51.48657227 14.00317383 C-50.41328872 9.72139715 -49.16028399 6.14554686 -46.98657227 2.31567383 C-46.30594727 2.33887695 -45.62532227 2.36208008 -44.92407227 2.38598633 C-39.13563627 2.49374976 -33.63982381 2.18798504 -27.91235352 1.32739258 C-18.62074761 0.06250923 -9.36490926 -0.0220697 0 0 Z " fill="#F8E271" transform="translate(299.986572265625,165.684326171875)"/>
<path d="M0 0 C1.11375 0.1546875 1.11375 0.1546875 2.25 0.3125 C1.92 0.9725 1.59 1.6325 1.25 2.3125 C0.59 2.3125 -0.07 2.3125 -0.75 2.3125 C-1.01264648 3.15240479 -1.27529297 3.99230957 -1.54589844 4.85766602 C-2.83033633 8.54300272 -4.37414633 12.05493607 -6.015625 15.58984375 C-6.66537452 17.00585482 -7.31511375 18.4218706 -7.96484375 19.83789062 C-8.97502758 22.02953765 -9.986426 24.22061843 -10.99853516 26.41137695 C-15.54777027 36.27179358 -19.82273727 46.18735293 -23.75 56.3125 C-23.09563965 55.44818359 -22.4412793 54.58386719 -21.76708984 53.69335938 C6.67735216 16.22849382 6.67735216 16.22849382 22.25 13.3125 C26.69694424 12.95956792 29.20070453 12.83157291 33.25 14.6875 C35.84202639 18.08953464 36.02448503 20.25592584 35.7890625 24.46875 C33.86068941 34.64161675 27.33946761 42.17022444 20.25 49.3125 C19.38375 50.22 18.5175 51.1275 17.625 52.0625 C16.84125 52.805 16.0575 53.5475 15.25 54.3125 C14.80011719 54.75722656 14.35023438 55.20195312 13.88671875 55.66015625 C4.73091777 64.17982217 -7.07783028 69.27959086 -18.75 73.3125 C-18.20982171 78.22015132 -17.16682019 82.24589777 -15.203125 86.76953125 C-14.4296875 88.56293945 -14.4296875 88.56293945 -13.640625 90.39257812 C-13.37056641 91.00689697 -13.10050781 91.62121582 -12.82226562 92.25415039 C-12.00812996 94.10650241 -11.20611464 95.96371316 -10.40625 97.82226562 C-7.66707178 104.13118972 -4.8202958 110.33723075 -1.62402344 116.4284668 C-0.75 118.3125 -0.75 118.3125 -0.75 120.3125 C-4.1653618 119.75279188 -5.51523327 118.87735141 -7.55078125 116.09765625 C-11.24625014 110.88496561 -14.13084827 105.24580448 -17.01928711 99.55786133 C-17.93946235 97.74613635 -18.87010221 95.94010474 -19.80273438 94.13476562 C-22.64358903 88.59771521 -25.41909923 83.08465791 -27.75 77.3125 C-31.46834585 81.5890271 -34.02650977 86.22412158 -36.6875 91.1875 C-39.71885199 96.83790262 -42.741265 102.2883073 -46.75 107.3125 C-49.5625 107.75 -49.5625 107.75 -51.75 107.3125 C-51.1615212 101.9233573 -49.30818066 97.62731615 -47.05859375 92.76953125 C-46.49307045 91.52589813 -46.49307045 91.52589813 -45.91612244 90.25714111 C-44.68003571 87.54327076 -43.43389281 84.83415057 -42.1875 82.125 C-41.32506195 80.23718166 -40.46325224 78.34907614 -39.60205078 76.46069336 C-37.84424828 72.60935938 -36.08234162 68.75994494 -34.31689453 64.91210938 C-31.95032064 59.75306466 -29.59607059 54.58849664 -27.24609375 49.421875 C-23.70331701 41.63646274 -20.14292692 33.85929788 -16.5670166 26.08905029 C-15.79562315 24.41170462 -15.0261684 22.73346775 -14.25683594 21.05517578 C-13.01231698 18.34559587 -11.75864166 15.64054185 -10.5 12.9375 C-9.99799072 11.84127319 -9.99799072 11.84127319 -9.48583984 10.72290039 C-4.69323654 0.53332233 -4.69323654 0.53332233 0 0 Z " fill="#1C1E1F" transform="translate(149.75,294.6875)"/>
<path d="M0 0 C0.19484938 2.43711614 0.38115178 4.87437398 0.5625 7.3125 C0.64661133 8.34793945 0.64661133 8.34793945 0.73242188 9.40429688 C0.96581505 12.62512274 1.03224218 14.90327345 0 18 C-1.98 18 -3.96 18 -6 18 C-5.94199219 18.61488281 -5.88398438 19.22976563 -5.82421875 19.86328125 C-5.68685516 22.32405191 -5.6340369 24.56024603 -6 27 C-8.4375 28.8125 -8.4375 28.8125 -11 30 C-11.33 31.32 -11.66 32.64 -12 34 C-18.93 34.66 -25.86 35.32 -33 36 C-33.66 37.98 -34.32 39.96 -35 42 C-37.1640625 43.0234375 -37.1640625 43.0234375 -39.625 43.375 C-40.44226563 43.50648438 -41.25953125 43.63796875 -42.1015625 43.7734375 C-42.72804688 43.84820312 -43.35453125 43.92296875 -44 44 C-44 44.66 -44 45.32 -44 46 C-44.99 46 -45.98 46 -47 46 C-47 46.66 -47 47.32 -47 48 C-45.35 48.33 -43.7 48.66 -42 49 C-43.32 49.66 -44.64 50.32 -46 51 C-46 52.65 -46 54.3 -46 56 C-51.73339302 58.90170366 -56.55772984 59.51769623 -62.9375 59.6875 C-63.81212891 59.72166016 -64.68675781 59.75582031 -65.58789062 59.79101562 C-67.72483254 59.87275657 -69.86239218 59.9380713 -72 60 C-71.86867676 59.42064697 -71.73735352 58.84129395 -71.60205078 58.24438477 C-70.60774414 53.82113544 -69.66627208 49.40253532 -68.875 44.9375 C-68.70742188 43.99777344 -68.53984375 43.05804688 -68.3671875 42.08984375 C-68.24601562 41.40019531 -68.12484375 40.71054687 -68 40 C-67.37351562 39.80664062 -66.74703125 39.61328125 -66.1015625 39.4140625 C-65.28429687 39.15367187 -64.46703125 38.89328125 -63.625 38.625 C-62.81289063 38.36976563 -62.00078125 38.11453125 -61.1640625 37.8515625 C-58.83540815 37.10145717 -58.83540815 37.10145717 -57 35 C-56.86559222 32.57080135 -56.86559222 32.57080135 -58 30 C-62.6435211 25.50342577 -67.6001927 23.09138927 -73.5 20.5625 C-74.37624023 20.17779541 -75.25248047 19.79309082 -76.15527344 19.39672852 C-78.76573058 18.25387858 -81.38185004 17.12509687 -84 16 C-85.47401004 15.36209863 -86.94797246 14.72408722 -88.421875 14.0859375 C-91.60898996 12.71064863 -94.80211862 11.35009893 -98 10 C-97.67 9.34 -97.34 8.68 -97 8 C-94.22900391 7.51342773 -94.22900391 7.51342773 -90.4765625 7.18359375 C-89.7961792 7.12256973 -89.1157959 7.06154572 -88.41479492 6.99867249 C-86.15232802 6.80050938 -83.88891584 6.61830642 -81.625 6.4375 C-80.84823914 6.37208008 -80.07147827 6.30666016 -79.2711792 6.23925781 C-66.65192442 5.18084997 -54.06855287 4.69934839 -41.41070557 4.45773315 C-27.56114838 4.18020199 -13.46618074 0 0 0 Z " fill="#F7E271" transform="translate(373,258)"/>
<path d="M0 0 C7.02794868 0.33466422 12.60620068 2.13013183 19 5 C18.30539603 21.0800818 13.16860924 36.41337753 7.9375 51.5 C7.65476227 52.32194855 7.37202454 53.14389709 7.08071899 53.99075317 C-0.01868141 74.56818791 -7.85862404 95.78793606 -20 114 C-23.55241825 114.39471314 -26.01276693 114.52871087 -29.20458984 112.81933594 C-31 111 -31 111 -31.44775391 108.47753906 C-31.21980049 101.45842537 -30.59573058 94.66669227 -29.375 87.75 C-29.19678711 86.72132813 -29.01857422 85.69265625 -28.83496094 84.6328125 C-24.1514271 58.57619788 -16.8633003 32.10952235 -4.8125 8.4375 C-4.27979492 7.37305664 -4.27979492 7.37305664 -3.73632812 6.28710938 C-1.14122828 1.14122828 -1.14122828 1.14122828 0 0 Z " fill="#899BB8" transform="translate(221,179)"/>
<path d="M0 0 C2.47180466 2.16282908 3.81639996 3.93750847 4.3828125 7.21533203 C4.54234214 9.92681116 4.55323096 12.5967954 4.5 15.3125 C4.48791504 16.29653809 4.47583008 17.28057617 4.46337891 18.29443359 C4.24973813 26.24575481 3.03356615 33.30707218 0.64599609 40.92041016 C-0.05933271 43.1910038 -0.70948108 45.47356003 -1.35546875 47.76171875 C-6.36176068 65.27691065 -12.4763222 81.88817001 -21 98 C-21.33 98.66 -21.66 99.32 -22 100 C-22.66 100 -23.32 100 -24 100 C-24 99.34 -24 98.68 -24 98 C-24.62648437 97.79503906 -25.25296875 97.59007812 -25.8984375 97.37890625 C-26.71570313 97.10949219 -27.53296875 96.84007812 -28.375 96.5625 C-29.18710938 96.29566406 -29.99921875 96.02882813 -30.8359375 95.75390625 C-33 95 -33 95 -35 94 C-36.53668865 93.77532169 -38.07968054 93.59203195 -39.625 93.4375 C-40.85089844 93.31181641 -40.85089844 93.31181641 -42.1015625 93.18359375 C-42.72804687 93.12300781 -43.35453125 93.06242187 -44 93 C-44.24758483 86.69386886 -43.39720708 81.23432177 -41.875 75.125 C-41.65054199 74.20879883 -41.42608398 73.29259766 -41.19482422 72.34863281 C-37.21695742 56.53011919 -21.93761095 -3.65626849 0 0 Z " fill="#8A9CB9" transform="translate(267,76)"/>
<path d="M0 0 C0.99 0 1.98 0 3 0 C0.62134389 7.5098708 -2.29247639 14.72760316 -5.3125 22 C-21.0982368 55.65476036 -21.0982368 55.65476036 -23 91 C-16.54989753 90.73124573 -12.70327724 88.36586822 -8 84 C-7.48953125 83.29488281 -6.9790625 82.58976562 -6.453125 81.86328125 C-5 80 -5 80 -2 79 C-0.86528341 77.414954 -0.86528341 77.414954 0 75.4375 C0.34160156 74.71820313 0.68320312 73.99890625 1.03515625 73.2578125 C1.94356868 71.13205387 2.70060055 69.00238197 3.4375 66.8125 C4.87423503 62.91718097 6.57734728 60.48920198 10 58 C13.6875 57.5625 13.6875 57.5625 17 58 C19 60 19 60 19.3125 63.625 C19.21983697 68.22445605 17.80103851 71.79757681 16 76 C16.66386719 75.45730469 17.32773437 74.91460937 18.01171875 74.35546875 C18.89472656 73.64003906 19.77773438 72.92460937 20.6875 72.1875 C21.55761719 71.47980469 22.42773438 70.77210938 23.32421875 70.04296875 C29.81652257 65.08607109 29.81652257 65.08607109 34.4375 64.75 C38.90030368 63.81046238 40.09040918 62.13391868 42.73828125 58.59375 C44 57 44 57 46 56 C49.0625 55.875 49.0625 55.875 52 56 C53.71128922 57.71128922 53.25371098 59.84522171 53.3125 62.1875 C53.28576213 69.59388972 51.32006627 75.99837143 49 83 C49.91523438 82.41089844 50.83046875 81.82179688 51.7734375 81.21484375 C52.97369181 80.45530782 54.17422729 79.69621609 55.375 78.9375 C55.97828125 78.54755859 56.5815625 78.15761719 57.203125 77.75585938 C58.76492557 76.77539568 60.37992214 75.88083925 62 75 C62.66 75.33 63.32 75.66 64 76 C62.97261719 76.56203125 61.94523437 77.1240625 60.88671875 77.703125 C49.06075183 84.68735816 44.21539532 92.65120292 38.20410156 104.73291016 C35.53173805 109.76445266 31.93515277 113.89857317 28 118 C27.2678125 118.78375 26.535625 119.5675 25.78125 120.375 C18.38805808 127.66961603 6.10100922 135.75084178 -4.5625 136.125 C-8 136 -8 136 -10 135 C-10.6987473 130.30841096 -10.21650132 127.69743042 -7.4375 123.8125 C0.15980834 114.84218413 10.11243467 107.98555908 20.0625 101.875 C20.72282227 101.46596436 21.38314453 101.05692871 22.06347656 100.63549805 C24.68904108 99.01464011 27.31199593 97.39662606 29.98535156 95.85546875 C37.60535833 91.43609263 42.74290063 87.68814996 45.375 79 C46.96125091 73.00264851 47.53498903 67.17256986 47 61 C46.28714844 61.94101562 45.57429688 62.88203125 44.83984375 63.8515625 C32.66879468 79.74479461 32.66879468 79.74479461 25 83 C22.66796188 83.0777346 20.33160941 83.08967728 18 83 C17.67 81.35 17.34 79.7 17 78 C13.96313287 79.69707281 11.65905148 81.32612467 9.125 83.75 C6 86 6 86 2.25 85.9375 C-1 85 -1 85 -3 83 C-3.72703125 83.92232422 -3.72703125 83.92232422 -4.46875 84.86328125 C-9.90451982 91.41756524 -13.62378424 94.13980548 -22.125 95.5 C-25.25423282 94.9557856 -27.50765173 94.11838264 -29.86328125 91.9296875 C-33.28885973 86.11444431 -31.34168901 77.69413965 -29.9375 71.4375 C-14.08174088 15.20828015 -14.08174088 15.20828015 0 0 Z " fill="#27292A" transform="translate(340,306)"/>
<path d="M0 0 C4.16160823 1.83885015 6.0181044 3.93711401 8 8 C16.20964111 34.33926523 -2.16535053 75.90820179 -14.1315918 98.92675781 C-16.35953159 103.26827841 -17.64646474 107.19518278 -18.41015625 112.02832031 C-19.1212335 114.40524907 -20.23575587 115.30088664 -22 117 C-22.78506687 119.51683202 -23.43328066 121.93535486 -24 124.5 C-26.89226744 137.00047791 -30.56775991 149.14709058 -34.625 161.3125 C-35.02217224 162.50462097 -35.02217224 162.50462097 -35.42736816 163.7208252 C-52.25442703 214.05526155 -52.25442703 214.05526155 -64 225 C-65.33082769 225.34320046 -66.66395747 225.67769696 -68 226 C-69.10836423 227.88316159 -69.10836423 227.88316159 -70 230 C-71.3125 231.8125 -71.3125 231.8125 -73 233 C-75.60546875 232.57421875 -75.60546875 232.57421875 -78 232 C-78.19916016 230.95199219 -78.19916016 230.95199219 -78.40234375 229.8828125 C-78.57894531 228.97273437 -78.75554687 228.06265625 -78.9375 227.125 C-79.11152344 226.22007812 -79.28554687 225.31515625 -79.46484375 224.3828125 C-79.89963701 222.00043683 -79.89963701 222.00043683 -81 220 C-81.12619896 218.08647154 -81.17580701 216.16764977 -81.1875 214.25 C-81.20167969 213.22390625 -81.21585938 212.1978125 -81.23046875 211.140625 C-80.47659527 188.02893113 -73.48590318 164.20056532 -66 142.4375 C-65.75509827 141.71986481 -65.51019653 141.00222961 -65.25787354 140.2628479 C-61.5511319 129.4836705 -57.09720788 119.19441576 -52 109 C-51.72904124 106.73340843 -51.55512003 104.46718841 -51.37890625 102.19140625 C-51 100 -51 100 -49 97 C-48.70940589 95.11260591 -48.49255746 93.21362617 -48.3125 91.3125 C-45.23634556 68.04908208 -36.09656084 44.5806088 -25 24 C-24.42378906 22.90816406 -23.84757812 21.81632812 -23.25390625 20.69140625 C-11.22170409 -1.12217041 -11.22170409 -1.12217041 0 0 Z M-16.8125 16.5625 C-28.70273219 36.4534181 -36.49950335 58.05781359 -42 80.5 C-42.20794189 81.34175781 -42.41588379 82.18351562 -42.63012695 83.05078125 C-43.80630116 88.1532032 -44.19211126 92.76496826 -44 98 C-42.700625 98.0825 -41.40125 98.165 -40.0625 98.25 C-35.50951471 98.73267407 -31.92782232 100.13806337 -27.84765625 102.16015625 C-26.03480686 103.13793431 -26.03480686 103.13793431 -24 103 C-24 103.66 -24 104.32 -24 105 C-23.34 105 -22.68 105 -22 105 C-8.94145707 79.77778891 4.02958754 49.81934961 4.3125 21 C4.34150391 20.01515625 4.37050781 19.0303125 4.40039062 18.015625 C4.43979143 13.52999525 4.46124247 10.78665295 2.15625 6.85546875 C0.09478085 4.79783036 0.09478085 4.79783036 -2.8125 4.3125 C-9.7055859 5.79924402 -13.12767557 10.85361708 -16.8125 16.5625 Z M-46 108 C-48.98467629 112.24386841 -51.32505991 116.51740108 -53.37109375 121.29296875 C-53.67051376 121.98633835 -53.96993378 122.67970795 -54.27842712 123.39408875 C-57.60426663 131.23066911 -60.39151025 139.23323037 -63.0625 147.3125 C-63.32013123 148.08603821 -63.57776245 148.85957642 -63.84320068 149.65655518 C-68.56844697 163.91416078 -72.29489917 178.21085812 -75 193 C-75.14115234 193.75941895 -75.28230469 194.51883789 -75.42773438 195.30126953 C-77.60570604 207.12044533 -77.60570604 207.12044533 -77 219 C-75.48506712 220.99407295 -75.48506712 220.99407295 -73 222 C-69.33285151 222.25063732 -69.33285151 222.25063732 -66 222 C-54.56264279 202.89618537 -46.41279658 182.9687075 -39 162 C-38.65662598 161.0423877 -38.31325195 160.08477539 -37.95947266 159.09814453 C-34.42617913 149.20527793 -31.42373714 139.30301821 -29.0625 129.0625 C-28.85069092 128.14428467 -28.63888184 127.22606934 -28.4206543 126.2800293 C-27.43522929 121.7744495 -26.74757557 117.64307958 -27 113 C-33.4150557 110.12059087 -38.97047248 108.4535179 -46 108 Z " fill="#0C0D0B" transform="translate(267,71)"/>
<path d="M0 0 C0.66 0 1.32 0 2 0 C1.45088881 6.98155659 -0.05655517 13.15606689 -2.1875 19.8125 C-2.82595363 21.8566357 -3.4639667 23.90090906 -4.1015625 25.9453125 C-4.42157227 26.96270508 -4.74158203 27.98009766 -5.07128906 29.02832031 C-6.43869788 33.40374097 -7.75308105 37.79444104 -9.0625 42.1875 C-10.59615546 47.32485786 -12.13785128 52.45929982 -13.70703125 57.5859375 C-13.98603271 58.50221924 -14.26503418 59.41850098 -14.55249023 60.36254883 C-15.08904143 62.12381912 -15.6287704 63.8841254 -16.17211914 65.64331055 C-16.4118042 66.43261963 -16.65148926 67.22192871 -16.8984375 68.03515625 C-17.11161621 68.7300415 -17.32479492 69.42492676 -17.54443359 70.14086914 C-18.11900067 72.16661011 -18.11900067 72.16661011 -18 75 C-17.5875 74.61328125 -17.175 74.2265625 -16.75 73.828125 C-11.4421675 69.04159748 -6.47773175 65.40573537 0.75 64.5625 C4.13783135 65.01855422 5.56511169 65.66250722 8 68 C7.86036657 72.60790324 5.75803547 75.05537229 2.56640625 78.09375 C-3.71884857 82.76224977 -11.40596411 86.45594644 -18.82421875 88.94921875 C-21.64582191 90.31189604 -22.32660468 91.7149119 -23.6875 94.5 C-24.99971546 97.13297955 -25.90650207 98.90650207 -28 101 C-30.625 100.625 -30.625 100.625 -33 100 C-32.44913092 94.61186263 -31.49582705 89.84677274 -29.79443359 84.67626953 C-29.57144592 83.99200394 -29.34845825 83.30773834 -29.11871338 82.60273743 C-28.38583006 80.36032316 -27.64243207 78.12156238 -26.8984375 75.8828125 C-26.37804769 74.30085491 -25.85816988 72.71872882 -25.33877563 71.13644409 C-24.248866 67.82151276 -23.15393514 64.50829732 -22.05517578 61.19628906 C-20.66537229 57.00620898 -19.28622038 52.81272316 -17.91074181 48.61792183 C-16.83680997 45.34588249 -15.75791826 42.0754946 -14.67757034 38.8055687 C-14.16850711 37.26344443 -13.66067883 35.7209118 -13.15424728 34.1779213 C-10.36625917 25.69574148 -7.41853603 17.2992799 -4.19384766 8.97216797 C-3.89121191 8.18936022 -3.58857616 7.40655247 -3.27676964 6.60002327 C-1.12842645 1.12842645 -1.12842645 1.12842645 0 0 Z " fill="#1F2122" transform="translate(303,300)"/>
<path d="M0 0 C1 1 1 1 1.5 4.1875 C1.32252782 15.19077524 -7.74427778 26.4768393 -15 34 C-24.20006697 42.73725872 -36.17366134 51.01909828 -49 53 C-49.99 52.67 -50.98 52.34 -52 52 C-46.41123211 43.33584866 -40.46216775 35.03734997 -34 27 C-33.53045898 26.41395996 -33.06091797 25.82791992 -32.57714844 25.22412109 C-11.18339489 -1.24259943 -11.18339489 -1.24259943 0 0 Z " fill="#FAFAFA" transform="translate(177,312)"/>
<path d="M0 0 C0.495 1.98 0.495 1.98 1 4 C1.99 3.34 2.98 2.68 4 2 C6.1875 2.375 6.1875 2.375 8 3 C7.85769192 4.41702513 7.71099254 5.8336096 7.5625 7.25 C7.48128906 8.03890625 7.40007812 8.8278125 7.31640625 9.640625 C7 12 7 12 6.5 13.86328125 C5.97035917 16.12666823 5.79335609 18.22618559 5.68359375 20.546875 C5.62075195 21.81337891 5.62075195 21.81337891 5.55664062 23.10546875 C5.51732422 23.97816406 5.47800781 24.85085938 5.4375 25.75 C5.37272461 27.08224609 5.37272461 27.08224609 5.30664062 28.44140625 C5.20086385 30.62745963 5.09877454 32.81362089 5 35 C4.01 35 3.02 35 2 35 C-0.35582065 30.37183267 -0.23521469 26.24465865 -0.125 21.1875 C-0.11597656 20.39923828 -0.10695312 19.61097656 -0.09765625 18.79882812 C-0.07422504 16.86575334 -0.03835838 14.9328362 0 13 C-1.24716797 14.26457031 -1.24716797 14.26457031 -2.51953125 15.5546875 C-3.61705397 16.66159075 -4.71471759 17.7683543 -5.8125 18.875 C-6.35970703 19.43058594 -6.90691406 19.98617188 -7.47070312 20.55859375 C-8.26831055 21.36103516 -8.26831055 21.36103516 -9.08203125 22.1796875 C-9.81256714 22.91807861 -9.81256714 22.91807861 -10.55786133 23.67138672 C-14.38922548 27.20114527 -16.95747808 27.19028385 -22 27 C-22 25.68 -22 24.36 -22 23 C-22.6290625 23.433125 -23.258125 23.86625 -23.90625 24.3125 C-29.58480132 28.00697917 -33.2044351 30.0366116 -40 29 C-42.84124653 27.76467542 -44.42097859 26.7444561 -46.3125 24.3125 C-47.86841574 19.07896525 -47.59242966 14.69542627 -45.3125 9.8125 C-43.3395932 6.29044455 -41.21231807 3.50717508 -38 1 C-34.20519469 0.36753245 -33.27057143 0.81961905 -30 3 C-29.33608564 6.17203529 -29.43435341 8.11949511 -31.20703125 10.87890625 C-33.8728141 14.11158975 -36.13340966 16.28525124 -40 18 C-39.67 20.31 -39.34 22.62 -39 25 C-33.47891987 25.87174949 -29.90594998 23.7733053 -25.38671875 20.90234375 C-22.26726837 18.41597332 -20.46099892 15.70949537 -18.4296875 12.3125 C-14.33273386 5.68573346 -8.5782259 -2.69601385 0 0 Z " fill="#222426" transform="translate(204,362)"/>
<path d="M0 0 C0.99 0 1.98 0 3 0 C2.68991116 1.60463449 2.37683713 3.20869231 2.0625 4.8125 C1.88847656 5.70582031 1.71445313 6.59914063 1.53515625 7.51953125 C1 10 1 10 0 13 C0.59280762 12.9285376 1.18561523 12.8570752 1.79638672 12.78344727 C8.26434122 12.06261722 14.62130583 11.87812639 21.125 11.9375 C22.55972656 11.94426758 22.55972656 11.94426758 24.0234375 11.95117188 C26.34902758 11.96279983 28.6744776 11.97913898 31 12 C31 12.33 31 12.66 31 13 C30.20827393 13.08564209 29.41654785 13.17128418 28.60083008 13.25952148 C25.00446415 13.64986358 21.4084829 14.04364553 17.8125 14.4375 C16.56662109 14.57220703 15.32074219 14.70691406 14.03710938 14.84570312 C12.83505859 14.97783203 11.63300781 15.10996094 10.39453125 15.24609375 C9.28956299 15.36654053 8.18459473 15.4869873 7.04614258 15.61108398 C4.32634427 15.95833402 1.67907403 16.42233147 -1 17 C-1.24121582 17.98057373 -1.24121582 17.98057373 -1.48730469 18.98095703 C-6.79328871 40.50387511 -6.79328871 40.50387511 -9 47.9375 C-10.94043925 54.55300596 -12.56975016 61.23642279 -14.1875 67.9375 C-14.44982422 69.01700928 -14.71214844 70.09651855 -14.98242188 71.20874023 C-16.52457318 77.65249243 -16.52457318 77.65249243 -17.55078125 84.19140625 C-17.69902344 85.11824219 -17.84726563 86.04507813 -18 87 C-18.99 87.495 -18.99 87.495 -20 88 C-20.50088293 76.17359749 -18.50009694 64.52435726 -16 53 C-16.72445312 53.95261719 -17.44890625 54.90523438 -18.1953125 55.88671875 C-19.17152397 57.15391633 -20.14810632 58.42082827 -21.125 59.6875 C-21.599375 60.31333984 -22.07375 60.93917969 -22.5625 61.58398438 C-25.70376738 65.63791727 -28.8041325 69.02007778 -33 72 C-36.8125 71.9375 -36.8125 71.9375 -40 71 C-42.47309287 66.05381425 -41.49245018 59.8127261 -40.09375 54.6640625 C-35.16482165 41.10950953 -35.16482165 41.10950953 -30 37 C-27.3125 36.80078125 -27.3125 36.80078125 -25 37 C-24.67 38.65 -24.34 40.3 -24 42 C-24.598125 42.185625 -25.19625 42.37125 -25.8125 42.5625 C-30.48978137 45.63614204 -31.72942242 52.82693416 -33 58 C-33.41289748 60.66506555 -33.71751043 63.31634909 -34 66 C-20.07691425 55.02908716 -13.49800358 44.84101252 -9.60327148 27.62963867 C-8.78758212 24.07407811 -7.88475188 20.53900752 -7 17 C-13.6 17.66 -20.2 18.32 -27 19 C-27 18.01 -27 17.02 -27 16 C-16.605 14.515 -16.605 14.515 -6 13 C-5.38125 11.22625 -4.7625 9.4525 -4.125 7.625 C-2.25 2.25 -2.25 2.25 0 0 Z " fill="#212325" transform="translate(252,324)"/>
<path d="M0 0 C2.0423166 0.00503074 4.08463441 0.00959083 6.12695312 0.01367188 C11.06383287 0.02453969 16.00065246 0.04171529 20.9375 0.0625 C20.75058594 0.68253906 20.56367188 1.30257812 20.37109375 1.94140625 C19.69024355 4.10694602 19.69024355 4.10694602 21 6 C21.9375 8.0625 21.9375 8.0625 21.3125 10.6875 C19.67302152 13.51932646 18.99640699 13.99138436 15.9375 15.0625 C13.29373712 15.12474105 10.81415564 15.06488917 8.1875 14.875 C7.40890625 14.82529053 6.6303125 14.77558105 5.828125 14.72436523 C-2.89103733 14.10533877 -11.54732624 12.95876884 -20.2109375 11.8203125 C-25.3632737 11.14330191 -30.52040249 10.5512918 -35.6875 10 C-45.19071066 8.97406107 -54.63663656 7.65699486 -64.0625 6.0625 C-64.0625 5.4025 -64.0625 4.7425 -64.0625 4.0625 C-60.41794665 3.57327659 -56.7716701 3.0981648 -53.125 2.625 C-52.12275391 2.49029297 -51.12050781 2.35558594 -50.08789062 2.21679688 C-33.39902004 0.07183232 -16.79946641 -0.07291554 0 0 Z " fill="#F3DE6F" transform="translate(320.0625,222.9375)"/>
<path d="M0 0 C0.99 0 1.98 0 3 0 C0.62134389 7.5098708 -2.29247639 14.72760316 -5.3125 22 C-21.0982368 55.65476036 -21.0982368 55.65476036 -23 91 C-16.54989753 90.73124573 -12.70327724 88.36586822 -8 84 C-7.47277344 83.28972656 -6.94554687 82.57945312 -6.40234375 81.84765625 C-4.72925587 79.64328142 -3.68708835 79.37063288 -1 79 C-1.4765647 83.28908234 -3.90789139 85.18274549 -7 88 C-7.969375 88.886875 -8.93875 89.77375 -9.9375 90.6875 C-13.90633544 93.68437574 -17.12841677 94.72706078 -22 95.4375 C-25.22359267 94.96739274 -27.44597771 94.17568607 -29.86328125 91.9296875 C-33.28885973 86.11444431 -31.34168901 77.69413965 -29.9375 71.4375 C-14.08174088 15.20828015 -14.08174088 15.20828015 0 0 Z " fill="#1D1F21" transform="translate(340,306)"/>
<path d="M0 0 C1 3 1 3 -0.5546875 6.22265625 C-1.31339927 7.51138768 -2.08790471 8.79090524 -2.875 10.0625 C-3.2870166 10.7335376 -3.6990332 11.4045752 -4.12353516 12.09594727 C-12.85875193 25.96688628 -25.21302939 36.82429907 -41 42 C-43.37890625 41.65234375 -43.37890625 41.65234375 -45 41 C-43.87907434 31.54741792 -33.84036366 24.60527013 -26.8828125 18.9375 C-18.21187145 12.24312954 -9.04681106 6.16995274 0 0 Z " fill="#F7F7F7" transform="translate(379,398)"/>
<path d="M0 0 C2 2 2 2 2.3125 5.625 C2.21983697 10.22445605 0.80103851 13.79757681 -1 18 C-0.31292969 17.44570313 0.37414062 16.89140625 1.08203125 16.3203125 C1.98308594 15.59585937 2.88414062 14.87140625 3.8125 14.125 C4.70582031 13.40570313 5.59914063 12.68640625 6.51953125 11.9453125 C9 10 9 10 12 8 C12.99 8.33 13.98 8.66 15 9 C13.88910032 12.33269903 13.21009041 12.79659259 10.5 14.8125 C7.68750191 17.1073604 7.07644635 17.72479313 6.0625 21.375 C6.041875 22.24125 6.02125 23.1075 6 24 C4.02 24 2.04 24 0 24 C0 22.68 0 21.36 0 20 C-3.03686713 21.69707281 -5.34094852 23.32612467 -7.875 25.75 C-11 28 -11 28 -14.875 27.8125 C-15.90625 27.544375 -16.9375 27.27625 -18 27 C-18.3338434 21.32466228 -18.32128343 17.7974094 -15 13 C-14.51839139 11.67489609 -14.06185599 10.3405238 -13.625 9 C-11.07355636 2.05586474 -7.60602131 -1.00456885 0 0 Z " fill="#202224" transform="translate(357,364)"/>
<path d="M0 0 C0.33 1.65 0.66 3.3 1 5 C0.1028125 5.2784375 0.1028125 5.2784375 -0.8125 5.5625 C-5.48978137 8.63614204 -6.72942242 15.82693416 -8 21 C-8.41289748 23.66506555 -8.71751043 26.31634909 -9 29 C-0.47070253 22.03547333 -0.47070253 22.03547333 8 15 C6.57222911 19.20696128 4.5117051 22.14972107 1.6875 25.5625 C0.92824219 26.49191406 0.16898438 27.42132813 -0.61328125 28.37890625 C-2.94237989 30.93672162 -5.13469223 33.0607597 -8 35 C-11.75 34.875 -11.75 34.875 -15 34 C-17.47309287 29.05381425 -16.49245018 22.8127261 -15.09375 17.6640625 C-8.40708755 -0.72425923 -8.40708755 -0.72425923 0 0 Z " fill="#1E2022" transform="translate(227,361)"/>
<path d="M0 0 C2.375 0.4375 2.375 0.4375 5.375 2.4375 C6.03891436 5.60953529 5.94064659 7.55699511 4.16796875 10.31640625 C1.5021859 13.54908975 -0.75840966 15.72275124 -4.625 17.4375 C-4.295 19.7475 -3.965 22.0575 -3.625 24.4375 C0.36550659 24.82681772 2.75682052 24.42980132 6.125 22.375 C7.1975 21.735625 8.27 21.09625 9.375 20.4375 C10.035 20.7675 10.695 21.0975 11.375 21.4375 C10.34886916 24.41327944 9.40868909 25.41504061 6.75 27.1875 C1.70441835 29.05623395 -2.41695368 29.39752014 -7.5 27.1875 C-11.11208721 24.21283995 -11.53223722 22.36512778 -12 17.6875 C-11.82797789 11.52910843 -8.98488324 7.11120245 -5.1875 2.4375 C-2.625 0.4375 -2.625 0.4375 0 0 Z " fill="#222426" transform="translate(168.625,362.5625)"/>
<path d="M0 0 C-2.23415274 3.07196002 -4.58197933 5.54229137 -7.5 7.9375 C-16.45987308 15.61022713 -23.79144077 25.3272931 -30.4765625 34.98828125 C-32 37 -32 37 -34 38 C-31.54933568 30.02889185 -28.24006872 22.52991078 -24.8125 14.9375 C-24.24765492 13.67791007 -23.68319889 12.4181456 -23.11914062 11.15820312 C-21.74989682 8.10373617 -20.37676603 5.05108191 -19 2 C-18.15695313 1.93941406 -17.31390625 1.87882812 -16.4453125 1.81640625 C-15.34960938 1.73261719 -14.25390625 1.64882813 -13.125 1.5625 C-12.03445312 1.48128906 -10.94390625 1.40007812 -9.8203125 1.31640625 C-6.26459339 0.91749593 -3.69350534 -0.09719751 0 0 Z " fill="#F5F4F2" transform="translate(159,314)"/>
<path d="M0 0 C1.32404485 3.97213455 0.28629351 6.9254177 -0.6953125 10.859375 C-0.88463348 11.64080872 -1.07395447 12.42224243 -1.26901245 13.22735596 C-1.67376388 14.88935401 -2.08258249 16.55036597 -2.49511719 18.21044922 C-3.1117054 20.69639904 -3.71315589 23.18562554 -4.3125 25.67578125 C-6.47185165 34.53656524 -8.92867686 43.19258264 -11.90185547 51.81445312 C-13.22100295 55.64109527 -14.37752544 59.48642743 -15.5 63.375 C-15.91006752 64.78778617 -16.32022685 66.2005457 -16.73046875 67.61328125 C-16.93591309 68.32436035 -17.14135742 69.03543945 -17.35302734 69.76806641 C-18.49370975 73.70320548 -19.6544147 77.63245483 -20.8125 81.5625 C-21.23576133 83.0012773 -21.65894653 84.440077 -22.08203125 85.87890625 C-22.38496094 86.90886719 -22.68789062 87.93882812 -23 89 C-23.33 89 -23.66 89 -24 89 C-23.52935237 79.73082217 -21.59796284 70.92390197 -19.4375 61.9375 C-19.17297531 60.82507935 -19.17297531 60.82507935 -18.90310669 59.69018555 C-14.0369834 39.29339901 -8.01694696 19.39099047 0 0 Z " fill="#C5CEDE" transform="translate(220,190)"/>
<path d="M0 0 C0.66 0 1.32 0 2 0 C2.1767942 11.01175272 -2.18288003 20.87825182 -6 31 C-6.45358887 32.20930176 -6.90717773 33.41860352 -7.37451172 34.66455078 C-15.48282853 56.2689969 -15.48282853 56.2689969 -19 65 C-19.33 65 -19.66 65 -20 65 C-19.3770476 57.5245712 -17.82703872 50.50245619 -15.9375 43.25 C-15.63094482 42.07074951 -15.32438965 40.89149902 -15.00854492 39.67651367 C-11.32011527 25.91201126 -6.53125145 12.67149672 0 0 Z " fill="#C4CEDD" transform="translate(249,100)"/>
<path d="M0 0 C0.66 0.33 1.32 0.66 2 1 C-0.6605659 5.07399153 -3.19256912 8.31792226 -6.9375 11.4375 C-10.92488954 14.7893284 -14.39324512 18.4579271 -17 23 C-17 23.99 -17 24.98 -17 26 C-12.2346243 25.36029003 -8.36684193 23.45263935 -4.125 21.3125 C-3.40828125 20.95164307 -2.6915625 20.59078613 -1.953125 20.21899414 C2.9868414 17.66701745 7.0511829 14.92861855 11 11 C12.47280594 9.70108528 13.95215302 8.40955484 15.4375 7.125 C16.62531359 6.08369093 17.81292916 5.0421557 19 4 C19.495 4.99 19.495 4.99 20 6 C11.18222973 16.91588924 0.3745656 24.54181147 -13 29 C-19.54098361 29.2295082 -19.54098361 29.2295082 -22 28 C-22.6987473 23.30841096 -22.21650132 20.69743042 -19.4375 16.8125 C-13.93578683 10.21500994 -6.80218956 5.17386619 0 0 Z " fill="#212325" transform="translate(352,413)"/>
<path d="M0 0 C7.28594532 0.27703214 14.73001651 0.93612181 21 5 C21.7734375 7.13671875 21.7734375 7.13671875 22 9 C18.89621148 11.63822024 16.18537076 12.70365731 12.25 13.6875 C10.77273438 14.06455078 10.77273438 14.06455078 9.265625 14.44921875 C8.51796875 14.63097656 7.7703125 14.81273437 7 15 C7.375 13.0625 7.375 13.0625 8 11 C8.66 10.67 9.32 10.34 10 10 C10 9.34 10 8.68 10 8 C7.525 7.01 7.525 7.01 5 6 C5 4.68 5 3.36 5 2 C3.35 1.67 1.7 1.34 0 1 C0 0.67 0 0.34 0 0 Z " fill="#494949" transform="translate(366,243)"/>
<path d="M0 0 C9.57 0 19.14 0 29 0 C29 1.98 29 3.96 29 6 C18.44 6 7.88 6 -3 6 C-3 5.67 -3 5.34 -3 5 C1.62 5 6.24 5 11 5 C11 3.68 11 2.36 11 1 C7.37 1 3.74 1 0 1 C0 0.67 0 0.34 0 0 Z " fill="#535146" transform="translate(330,217)"/>
<path d="M0 0 C0.703125 7.70926339 0.703125 7.70926339 -2.265625 11.37109375 C-3.24013445 12.41258431 -4.23565318 13.43476784 -5.25 14.4375 C-5.74113281 14.96537109 -6.23226562 15.49324219 -6.73828125 16.03710938 C-9.28125419 18.6784106 -11.24958922 20.65174757 -15 21 C-13.88287124 13.46274574 -9.04292514 6.58323855 -4 1 C-2 0 -2 0 0 0 Z " fill="#EEEEEE" transform="translate(201,365)"/>
<path d="M0 0 C5.89789646 0.04903239 9.48622321 1.08318779 14.1875 4.6875 C15.3125 6.25 15.3125 6.25 15.3125 10.25 C12.409229 9.84489242 9.77736013 9.44369172 7.0625 8.3125 C2.93860529 6.71917704 -1.34846293 6.04197958 -5.6875 5.25 C-6.25 3.3125 -6.25 3.3125 -6.6875 1.25 C-4.91035156 -0.52714844 -2.40479002 0.03549506 0 0 Z " fill="#EDD96C" transform="translate(227.6875,171.75)"/>
<path d="M0 0 C0.495 0.99 0.495 0.99 1 2 C-5.67110036 10.25843614 -12.93413517 16.14898097 -22.3125 21.0625 C-22.9113501 21.38613525 -23.5102002 21.70977051 -24.12719727 22.04321289 C-25.86328125 22.91015625 -25.86328125 22.91015625 -29 24 C-31.41796875 23.18359375 -31.41796875 23.18359375 -33 22 C-31.99582031 21.53851563 -30.99164063 21.07703125 -29.95703125 20.6015625 C-18.65830064 15.2658966 -8.74455674 9.07768272 0 0 Z " fill="#282A2C" transform="translate(371,417)"/>
<path d="M0 0 C0.33 1.32 0.66 2.64 1 4 C-10.04109589 14 -10.04109589 14 -15 14 C-13.61978336 9.30069095 -11.48165131 7.4952438 -7.5 4.75 C-6.5203125 4.06421875 -5.540625 3.3784375 -4.53125 2.671875 C-2 1 -2 1 0 0 Z " fill="#EDEDED" transform="translate(303,368)"/>
<path d="M0 0 C0.29341888 5.67276511 0.00559652 8.99067246 -3 14 C-4.32 13.34 -5.64 12.68 -7 12 C-7.32325181 7.87853942 -7.39022067 5.6324266 -5.1875 2.0625 C-3 0 -3 0 0 0 Z " fill="#EEEEEF" transform="translate(356,366)"/>
<path d="M0 0 C0.33 1.32 0.66 2.64 1 4 C0.01 4.33 -0.98 4.66 -2 5 C-3.15278165 6.27001368 -4.25207175 7.58941535 -5.3125 8.9375 C-8.24337068 12.42336534 -10.40303842 14.10303189 -15 15 C-15.33 14.01 -15.66 13.02 -16 12 C-15.39671875 11.62488281 -14.7934375 11.24976563 -14.171875 10.86328125 C-9.62570038 7.95226299 -6.25052916 5.37571233 -3 1 C-2.01 0.67 -1.02 0.34 0 0 Z " fill="#2E2F31" transform="translate(338,385)"/>
<path d="M0 0 C2 1 4 2 6 3 C5.45925627 6.78520613 3.92427254 8.59177555 1 11 C0.01 11 -0.98 11 -2 11 C-2.28571429 3.57142857 -2.28571429 3.57142857 0 0 Z " fill="#EDEEEE" transform="translate(344,379)"/>
<path d="M0 0 C0.66 0.99 1.32 1.98 2 3 C-4.6 3.66 -11.2 4.32 -18 5 C-18 4.01 -18 3.02 -18 2 C-5.32693984 -0.56669573 -5.32693984 -0.56669573 0 0 Z " fill="#3A3B3D" transform="translate(243,338)"/>
<path d="M0 0 C-1.4615836 3.36997254 -3.3380888 5.60745127 -5.9375 8.1875 C-6.97197266 9.22970703 -6.97197266 9.22970703 -8.02734375 10.29296875 C-10 12 -10 12 -13 13 C-12.51696726 8.68986172 -11.3982201 6.9764837 -8.0625 4.25 C-7.35222656 3.65703125 -6.64195312 3.0640625 -5.91015625 2.453125 C-3.80203383 0.84939997 -2.67064392 0 0 0 Z " fill="#EBEBEC" transform="translate(376,373)"/>
<path d="M0 0 C3.09150195 1.1549004 6.04685441 2.52998975 9 4 C8.34 4.66 7.68 5.32 7 6 C6.38125 5.690625 5.7625 5.38125 5.125 5.0625 C0.81197706 3.5960722 -3.4759996 3.33380974 -8 3 C-8 2.34 -8 1.68 -8 1 C-5.09261897 -0.45369052 -3.26033542 -0.29639413 0 0 Z " fill="#1D1C14" transform="translate(232,169)"/>
<path d="M0 0 C0.33 0.66 0.66 1.32 1 2 C1.66 2.33 2.32 2.66 3 3 C0.525 11.415 0.525 11.415 -2 20 C-2.33 20 -2.66 20 -3 20 C-2.51358785 13.15182898 -1.64006048 6.66957927 0 0 Z " fill="#BAC5D7" transform="translate(199,259)"/>
<path d="M0 0 C0.66 0.33 1.32 0.66 2 1 C2 1.66 2 2.32 2 3 C0.59308393 3.72750788 -0.82606022 4.43140353 -2.25 5.125 C-3.03890625 5.51945312 -3.8278125 5.91390625 -4.640625 6.3203125 C-7 7 -7 7 -9.296875 6.1171875 C-9.85890625 5.74851562 -10.4209375 5.37984375 -11 5 C-9.21289414 4.13633178 -7.4201535 3.28431406 -5.625 2.4375 C-4.62726563 1.96183594 -3.62953125 1.48617188 -2.6015625 0.99609375 C-1.74304688 0.66738281 -0.88453125 0.33867187 0 0 Z " fill="#2E3031" transform="translate(349,434)"/>
<path d="M0 0 C0.99 0.33 1.98 0.66 3 1 C-0.54039134 3.9156164 -4.1626772 6.50127818 -8 9 C-8.66 8.34 -9.32 7.68 -10 7 C-8.4050992 5.80008401 -6.79873853 4.61538682 -5.1875 3.4375 C-3.84751953 2.44556641 -3.84751953 2.44556641 -2.48046875 1.43359375 C-1.66191406 0.96050781 -0.84335937 0.48742187 0 0 Z " fill="#2F3133" transform="translate(375,398)"/>
<path d="M0 0 C1.26977059 3.80931176 0.52074507 5.81618993 -0.4375 9.6875 C-0.72496094 10.86699219 -1.01242188 12.04648438 -1.30859375 13.26171875 C-1.53675781 14.16535156 -1.76492187 15.06898438 -2 16 C-2.99 15.67 -3.98 15.34 -5 15 C-4.37321829 11.33827525 -3.35548154 8.1181005 -1.9375 4.6875 C-1.39416016 3.36298828 -1.39416016 3.36298828 -0.83984375 2.01171875 C-0.56269531 1.34785156 -0.28554687 0.68398437 0 0 Z " fill="#BCC7D9" transform="translate(220,190)"/>
<path d="M0 0 C0.33 0 0.66 0 1 0 C1 2.64 1 5.28 1 8 C1.99 8.33 2.98 8.66 4 9 C2.02 9 0.04 9 -2 9 C-2.125 5.625 -2.125 5.625 -2 2 C-1.34 1.34 -0.68 0.68 0 0 Z " fill="#181A1C" transform="translate(341,382)"/>
<path d="M0 0 C0 0.66 0 1.32 0 2 C-4.67201205 3.20568053 -9.21496292 3.09382426 -14 3 C-9.25294723 -0.16470185 -5.68228705 -0.10927475 0 0 Z " fill="#FEFAE7" transform="translate(185,305)"/>
<path d="M0 0 C2.475 0.495 2.475 0.495 5 1 C4.1875 3.4375 4.1875 3.4375 3 6 C2.01 6.33 1.02 6.66 0 7 C0 4.69 0 2.38 0 0 Z " fill="#797979" transform="translate(191,295)"/>
<path d="M0 0 C1.65 0 3.3 0 5 0 C5.99 1.98 6.98 3.96 8 6 C7.34 6 6.68 6 6 6 C6 7.65 6 9.3 6 11 C5.67 11 5.34 11 5 11 C4.87625 9.39125 4.87625 9.39125 4.75 7.75 C3.94523098 3.7261549 3.12270126 2.51830747 0 0 Z " fill="#E2E0D9" transform="translate(180,308)"/>
<path d="M0 0 C1.32 0.33 2.64 0.66 4 1 C1.69 2.65 -0.62 4.3 -3 6 C-3.66 5.67 -4.32 5.34 -5 5 C-2.75 2.4375 -2.75 2.4375 0 0 Z " fill="#222426" transform="translate(363,406)"/>
<path d="M0 0 C0.66 0.33 1.32 0.66 2 1 C2 1.66 2 2.32 2 3 C0.9171875 3.37125 0.9171875 3.37125 -0.1875 3.75 C-3.24713266 5.10983674 -5.4673738 6.82917754 -8 9 C-6.4169423 4.7257442 -3.49431596 2.73468206 0 0 Z " fill="#2E3032" transform="translate(236,373)"/>
<path d="M0 0 C2.475 0.99 2.475 0.99 5 2 C4.67 2.99 4.34 3.98 4 5 C2.35 4.67 0.7 4.34 -1 4 C-0.67 2.68 -0.34 1.36 0 0 Z " fill="#F8F7F3" transform="translate(372,249)"/>
<path d="M0 0 C2.64 0 5.28 0 8 0 C8 0.66 8 1.32 8 2 C5.36 2.33 2.72 2.66 0 3 C0 2.01 0 1.02 0 0 Z " fill="#2F3132" transform="translate(225,340)"/>
<path d="M0 0 C0.93065133 2.60582371 1.14917407 3.64198224 0.0625 6.25 C-0.4634375 7.11625 -0.4634375 7.11625 -1 8 C-1.33 7.34 -1.66 6.68 -2 6 C-2.99 6.66 -3.98 7.32 -5 8 C-3.62845496 5.04590299 -2.01136276 2.55991624 0 0 Z " fill="#CCCDCD" transform="translate(236,376)"/>
<path d="M0 0 C1 3 1 3 -0.3125 5.6875 C-0.869375 6.450625 -1.42625 7.21375 -2 8 C-2.66 8 -3.32 8 -4 8 C-3.50168276 4.31245243 -2.89932357 2.39509338 0 0 Z " fill="#DCDCDC" transform="translate(168,367)"/>
<path d="M0 0 C0.99 0.33 1.98 0.66 3 1 C1.68 2.32 0.36 3.64 -1 5 C-1.99 4.67 -2.98 4.34 -4 4 C-2.68 2.68 -1.36 1.36 0 0 Z " fill="#202224" transform="translate(354,431)"/>
<path d="M0 0 C1.65 0 3.3 0 5 0 C4.01 0.495 4.01 0.495 3 1 C2.690625 1.66 2.38125 2.32 2.0625 3 C1 5 1 5 -2 6 C-1.34 4.02 -0.68 2.04 0 0 Z " fill="#2D2F31" transform="translate(341,378)"/>
<path d="M0 0 C0 0.66 0 1.32 0 2 C-4.455 2.495 -4.455 2.495 -9 3 C-9 2.34 -9 1.68 -9 1 C-6.04335481 -0.4783226 -3.25770263 -0.06032783 0 0 Z " fill="#FAF3CD" transform="translate(166,309)"/>
</svg>
