<svg xmlns="http://www.w3.org/2000/svg" viewBox="0 0 24 24" width="24" height="24">
  <path fill="#ffffff" d="M12 .3c-6.6 0-12 5.4-12 12 0 5.3 3.4 9.9 8.1 11.5.6.1.8-.3.8-.7v-2.5c-3.3.7-4-1.6-4-1.6-.5-1.3-1.2-1.6-1.2-1.6-.9-.6.1-.6.1-.6 1.2.1 1.9 1.2 1.9 1.2 1.1 1.9 2.7 1.4 3.4 1.1.1-.8.5-1.4.9-1.7-2.7-.3-5.5-1.3-5.5-5.7 0-1.3.5-2.4 1.3-3.2-.1-.3-.5-1.5.1-3.2 0 0 1-.3 3.3 1.2 1-.3 2.1-.5 3.2-.5 1.1 0 2.2.2 3.2.5 2.2-1.5 3.2-1.2 3.2-1.2.6 1.7.2 2.9.1 3.2.8.8 1.3 1.9 1.3 3.2 0 4.5-2.8 5.4-5.5 5.7.5.5.9 1.3.9 2.5v3.7c0 .4.3.8.8.7 4.7-1.6 8.1-6.2 8.1-11.5 0-6.6-5.4-12-12-12z" />
</svg>